<mxfile host="app.diagrams.net" modified="2023-11-15T04:43:00.830Z" agent="Mozilla/5.0 (Windows NT 10.0; Win64; x64) AppleWebKit/537.36 (KHTML, like Gecko) Chrome/119.0.0.0 Safari/537.36 Edg/119.0.0.0" etag="jb4Pxcae3bQsD6snjjOj" version="22.1.1" type="device">
  <diagram name="Trang-1" id="rn9xWN_GqHX-miinpDSt">
    <mxGraphModel dx="996" dy="578" grid="1" gridSize="10" guides="1" tooltips="1" connect="1" arrows="1" fold="1" page="1" pageScale="1" pageWidth="827" pageHeight="1169" math="0" shadow="0">
      <root>
        <mxCell id="0" />
        <mxCell id="1" parent="0" />
      </root>
    </mxGraphModel>
  </diagram>
</mxfile>
